# xmcd
#
# Track frame offsets: 
#        150
#        23007
#        46507
#        70015
#        91660
#        112747
#
# Disc length: 1971 seconds
#
# Revision: 0
# Processed by: cddbd v1.5.1PL0 Copyright (c) Steve Scherf et al.
# Submitted via: ExactAudioCopy v0.95a4
#
DISCID=3207b106
DTITLE=Human Soul - Love Bells
DYEAR=1993
DGENRE=Soul
TTITLE0=The Christmas Shuffle
TTITLE1=Jealous Guy
TTITLE2=Luv Bells
TTITLE3=Rose
TTITLE4=Baby, It's Cold Outside
TTITLE5=Special Climb
EXTD=
EXTT0=
EXTT1=
EXTT2=
EXTT3=
EXTT4=
EXTT5=
PLAYORDER=
